<?xml version="1.0" encoding="UTF-8" standalone="no"?>
<!-- Created with Inkscape (http://www.inkscape.org/) -->

<svg
   width="44.422mm"
   height="32.146mm"
   version="1.1"
   viewBox="0 0 44.422 32.146"
   id="svg2"
   sodipodi:docname="logo.svg"
   inkscape:version="1.4 (e7c3feb100, 2024-10-09)"
   xmlns:inkscape="http://www.inkscape.org/namespaces/inkscape"
   xmlns:sodipodi="http://sodipodi.sourceforge.net/DTD/sodipodi-0.dtd"
   xmlns:xlink="http://www.w3.org/1999/xlink"
   xmlns="http://www.w3.org/2000/svg"
   xmlns:svg="http://www.w3.org/2000/svg">
  <defs
     id="defs2">
    <linearGradient
       inkscape:collect="always"
       xlink:href="#linearGradient1"
       id="linearGradient2"
       x1="148.90274"
       y1="78.148315"
       x2="178.62672"
       y2="111.16016"
       gradientUnits="userSpaceOnUse"
       gradientTransform="translate(-141.55363,-78.581006)" />
    <linearGradient
       id="linearGradient1"
       inkscape:collect="always">
      <stop
         style="stop-color:#ffef26;stop-opacity:1;"
         offset="0"
         id="stop2" />
      <stop
         style="stop-color:#fa5500;stop-opacity:1;"
         offset="1"
         id="stop1" />
    </linearGradient>
  </defs>
  <sodipodi:namedview
     id="namedview2"
     pagecolor="#ffffff"
     bordercolor="#000000"
     borderopacity="0.25"
     inkscape:showpageshadow="2"
     inkscape:pageopacity="0.0"
     inkscape:pagecheckerboard="0"
     inkscape:deskcolor="#d1d1d1"
     inkscape:document-units="mm"
     inkscape:zoom="5.6612772"
     inkscape:cx="83.903328"
     inkscape:cy="60.763673"
     inkscape:current-layer="svg2" />
  <path
     d="m 4.6463681,1.8309942 c 7.4415999,-2.9441 23.4589999,-2.47210002 34.9119999,2.3969 3.4224,1.7374 6.4059,5.6522 3.9815,11.9869998 -2.4245,6.3352 -5.1393,9.8584 -10.068,13.01 -4.9282,3.1511 -11.016,3.5418 -14.866,2.176 -3.8499,-1.3659 -8.4708,-3.3112 -13.6599999,-11.096 -5.18950001,-7.7849 -7.7414,-15.5289998 -0.29982,-18.4739998 z"
     fill="#a02c89"
     stop-color="#000000"
     stroke-width="0"
     style="font-variation-settings:normal;fill:url(#linearGradient2);paint-order:normal"
     id="path1" />
  <path
     id="path3-2"
     style="vector-effect:none;fill:#000000;fill-opacity:1;fill-rule:evenodd;stroke:none;stroke-width:0.162447;stop-color:#000000"
     inkscape:transform-center-x="-3.003824"
     d="m 30.567056,14.206366 c 0.127776,1.899648 -1.515675,3.645331 -2.961549,4.884052 -2.991645,2.563038 -7.869518,6.99021 -10.925987,4.504855 -2.456345,-1.997367 1.909009,-6.172415 1.753478,-9.334521 -0.144682,-2.941527 -4.60873,-6.450987 -2.475424,-8.4813852 2.768143,-2.6346109 7.706132,1.5551588 10.833188,3.7518182 1.639236,1.151505 3.6418,2.676441 3.776259,4.675181 z"
     sodipodi:nodetypes="aaaaaaaa"
     inkscape:transform-center-y="0.13860188" />
</svg>
